<svg xmlns="http://www.w3.org/2000/svg" fill="none" viewBox="0 0 316 260"><g clip-path="url(#a)"><path fill="#025A91" fill-rule="evenodd" d="M3.872 257.797h308.256c.831 0 1.512.253 1.512.563 0 .309-.684.562-1.512.562H3.872c-.831 0-1.512-.253-1.512-.562 0-.31.68-.563 1.512-.563Z" clip-rule="evenodd"/><path fill="#fff" fill-rule="evenodd" d="M53.712 257.782a50.987 50.987 0 0 1-17.005-4.021 53.087 53.087 0 0 1-4.427-2.14 53.169 53.169 0 0 1-3.209-1.881 56.419 56.419 0 0 1-10.66-8.779 58.581 58.581 0 0 1-3.723-4.314 60.667 60.667 0 0 1-4.796-7.121 62.26 62.26 0 0 1-5.717-13.352 63.521 63.521 0 0 1-1.734-7.489 65.3 65.3 0 0 1-.884-9.954v-.003c-.004-.256-.01-.512-.01-.769 0-.781.019-1.555.047-2.33.013-.31.022-.616.037-.922.01-.209.025-.419.038-.628.622-10.444 3.737-20.182 8.704-28.515a60.892 60.892 0 0 1 3.724-5.533c10.147-13.406 25.525-21.994 42.664-21.994 12.84 0 24.453-11.4 24.453-25.337S70.709 87.365 57.87 87.365H24.001c-.5-.006-.997-.028-1.49-.068v-.007h-.085c-.118-.009-.237-.021-.359-.034h-.022c-.203-.022-.406-.044-.606-.069l-.034-.003-.225-.028v-.01h-.053a17.212 17.212 0 0 1-.685-.109h-.006c-.06-.009-.119-.022-.178-.03l-.025-.004c-.066-.013-.131-.022-.197-.034h-.01l-.174-.038a30.527 30.527 0 0 1-.516-.11h-.003c-.047-.012-.097-.021-.143-.034h-.01l-.137-.03-.019-.004a1.538 1.538 0 0 1-.128-.031v-.006h-.025l-.122-.032v-.006h-.022a1.875 1.875 0 0 1-.125-.034l-.012-.003-.135-.038a23.93 23.93 0 0 1-.512-.147h-.006c-.035-.01-.069-.022-.107-.031v-.006h-.018c-.078-.025-.16-.047-.238-.072-.037-.013-.072-.025-.109-.034h-.003l-.106-.035h-.007c-.146-.047-.29-.097-.434-.147-.097-.034-.197-.068-.293-.103v-.006h-.02l-.09-.034-.01-.004c-.096-.034-.19-.071-.287-.109-.209-.081-.418-.165-.624-.253v-.006h-.016c-.056-.025-.113-.047-.169-.072H15.4l-.069-.031v-.007h-.015a8.14 8.14 0 0 1-.244-.109h-.006c-.16-.072-.32-.147-.475-.222l-.072-.034h-.006c-.022-.013-.047-.022-.07-.031l-.008-.003-.066-.032v-.006h-.013l-.062-.031v-.006h-.013c-.021-.01-.04-.022-.062-.032v-.006h-.01c-.021-.01-.04-.022-.062-.031v-.006h-.01l-.065-.032-.01-.003c-.209-.106-.415-.215-.618-.328v-.006h-.01l-.062-.034h-.003a10.147 10.147 0 0 1-.253-.144v-.006h-.01c-.209-.119-.415-.24-.618-.366l-.006-.003c-.06-.037-.119-.072-.178-.11H12.3l-.107-.065v-.006h-.009l-.284-.181c-.11-.072-.219-.144-.328-.22h-.003l-.107-.07-.109-.076a13.43 13.43 0 0 1-.26-.181l-.002-.003a36.255 36.255 0 0 1-.55-.4l-.006-.003c-.047-.035-.094-.072-.141-.106l-.006-.004c-.047-.037-.094-.072-.144-.109-.063-.047-.122-.097-.181-.144h-.003a30.473 30.473 0 0 1-.366-.293c-.075-.06-.147-.122-.222-.185l-.037-.03v-.007h-.01a5.902 5.902 0 0 1-.212-.184l-.034-.032v-.006h-.007a26.188 26.188 0 0 1-.693-.625l-.035-.034-.003-.003-.034-.032v-.006h-.006l-.032-.031v-.006h-.006a25.301 25.301 0 0 1-.915-.916v-.006h-.006l-.032-.034-.003-.003-.034-.035a13.51 13.51 0 0 1-.403-.44v-.003c-.085-.094-.172-.191-.256-.288v-.01h-.007l-.03-.034a14.851 14.851 0 0 1-.548-.656v-.006h-.006c-.047-.06-.094-.115-.14-.175v-.01h-.01l-.028-.037a4.177 4.177 0 0 1-.11-.14v-.007h-.002c-.047-.062-.097-.121-.144-.184-.075-.097-.147-.194-.222-.294l-.11-.146c-.062-.085-.121-.17-.184-.254V77.2h-.003c-.265-.371-.522-.75-.771-1.137v-.006h-.004c-.021-.038-.046-.072-.068-.11-.063-.096-.122-.193-.185-.293-.037-.06-.071-.119-.109-.178v-.007h-.003c-.034-.059-.072-.118-.106-.178v-.006h-.003c-.038-.06-.072-.122-.107-.181-.178-.303-.35-.61-.515-.922l-.038-.069v-.003c-.012-.021-.022-.046-.034-.068v-.007l-.034-.065v-.01H3.19a26.29 26.29 0 0 1-.365-.728v-.009h-.006l-.032-.066v-.009h-.003c-.009-.022-.022-.044-.03-.066v-.006H2.75l-.034-.072c-.075-.159-.147-.318-.222-.478a8.842 8.842 0 0 1-.11-.253v-.006c-.037-.084-.071-.169-.109-.25v-.006c-.025-.056-.047-.113-.072-.169v-.015h-.006l-.103-.257c-.088-.218-.175-.44-.256-.665l-.038-.097v-.012h-.006a14.98 14.98 0 0 1-.144-.4v-.007c-.075-.215-.15-.434-.218-.653v-.012h-.004c-.009-.034-.021-.066-.03-.1v-.01h-.004l-.034-.102v-.007c-.038-.118-.072-.24-.11-.362v-.006c-.05-.17-.097-.338-.143-.507v-.009c-.025-.084-.047-.172-.072-.256l-.038-.138v-.009l-.034-.137v-.01l-.034-.137v-.01c-.05-.203-.1-.406-.144-.612v-.016H.782L.71 66.98v-.016H.707c-.013-.056-.022-.112-.035-.168v-.016H.67a33.879 33.879 0 0 1-.106-.55l-.037-.203v-.016c-.013-.062-.022-.128-.035-.19v-.031H.485a3.828 3.828 0 0 1-.031-.2v-.022H.45c-.013-.072-.022-.144-.035-.219v-.003c-.04-.266-.078-.534-.11-.803v-.047H.302c-.013-.093-.022-.187-.032-.281v-.016c-.028-.25-.05-.503-.072-.756v-.056H.194c-.012-.147-.022-.294-.03-.44v-.075H.16a21.43 21.43 0 0 1-.031-.64v-.098H.126a28.374 28.374 0 0 1-.022-1.03c0-.344.01-.691.022-1.035h.003v-.097c.01-.215.018-.428.031-.643h.003v-.072c.01-.15.022-.297.031-.444h.003v-.053c.022-.253.044-.506.072-.759v-.012c.01-.094.02-.188.032-.282h.006v-.043c.031-.27.069-.538.11-.803.012-.075.021-.147.034-.222v-.019l.03-.2h.007v-.028c.01-.066.022-.128.034-.194v-.015l.038-.206c.034-.185.069-.37.106-.553v-.016c.013-.056.022-.113.034-.169v-.012c.022-.107.047-.213.072-.319v-.013c.047-.206.094-.409.147-.615v-.01l.035-.14v-.01c.012-.046.021-.093.034-.14v-.006c.034-.134.072-.266.11-.4v-.01c.046-.168.096-.34.146-.509v-.006c.038-.122.072-.244.11-.362v-.007c.012-.034.021-.071.034-.106v-.01a1.34 1.34 0 0 1 .034-.102h.003v-.01c.072-.218.144-.437.219-.653.047-.137.094-.271.144-.406h.003v-.012c.072-.194.144-.388.222-.578.059-.15.118-.297.178-.444h.006v-.016l.072-.168v-.006c.034-.085.072-.17.11-.253.105-.25.218-.494.33-.738l.035-.075v-.006c.012-.022.022-.047.034-.069h.003v-.006c.01-.022.022-.044.031-.066h.004v-.009c.118-.247.24-.487.365-.728h.003v-.006l.035-.069c.012-.028.025-.05.037-.075.072-.137.147-.272.219-.406a20.58 20.58 0 0 1 .44-.775h.003v-.006c.035-.06.072-.119.11-.178.037-.063.072-.125.11-.184.058-.1.121-.197.183-.294.025-.038.047-.075.072-.11v-.006c.022-.034.044-.072.069-.106h.006v-.01c.169-.259.34-.512.516-.765.06-.087.122-.172.181-.26.034-.052.069-.1.103-.146h.006v-.01a32.06 32.06 0 0 1 .55-.725l.14-.184h.007v-.009c.047-.06.097-.115.144-.175h.003v-.006l.147-.178.184-.222c.072-.087.147-.172.222-.26l.031-.037h.006v-.006c.085-.097.172-.194.257-.287.143-.163.293-.322.44-.478l.034-.038h.004l.03-.037h.007v-.007l.028-.03h.006v-.01c.263-.275.532-.54.806-.803h.007v-.006l.03-.032h.004l.034-.037.035-.038c.24-.228.484-.446.734-.665h.003a16.2 16.2 0 0 1 .253-.222h.006c.207-.178.416-.35.625-.515.047-.038.09-.075.138-.11h.01v-.006c.058-.047.12-.094.18-.14a18.252 18.252 0 0 1 .694-.515c.034-.026.069-.051.1-.076h.01v-.006c.121-.085.243-.17.368-.253.203-.138.41-.275.618-.407h.007v-.006l.11-.069a5.52 5.52 0 0 1 .18-.109h.003c.207-.128.413-.25.622-.369h.003a11.015 11.015 0 0 1 .325-.184h.006c.135-.078.27-.15.406-.222.026-.012.047-.025.072-.037l.072-.038.069-.037h.003l.069-.038h.006l.069-.037h.006c.022-.016.044-.025.066-.038h.01l.065-.037h.006c.022-.016.047-.025.069-.038h.003l.072-.037c.265-.128.53-.25.803-.369h.009c.025-.015.05-.025.072-.037l.175-.075h.01c.083-.04.17-.075.258-.11.157-.062.313-.125.47-.184h.008c.06-.028.122-.05.182-.075l.096-.037h.013c.134-.053.269-.1.403-.147l.219-.075h.003l.11-.038c.155-.05.309-.1.465-.147h.012c.256-.08.512-.153.772-.221h.003l.134-.038h.013c.044-.016.087-.025.131-.037h.016c.047-.016.093-.025.137-.038h.01l.146-.037c.222-.053.447-.103.672-.147h.028v-.006c.05-.01.1-.022.153-.032h.035v-.006c.056-.01.115-.022.171-.031h.013c.134-.028.269-.05.403-.075h.003l.238-.038h.021c.072-.015.147-.025.222-.037h.038v-.006c.08-.013.162-.022.24-.032h.016c.21-.028.418-.053.628-.075h.034c.116-.015.235-.028.35-.037h.09v-.006a21.072 21.072 0 0 1 1.613-.069h25.306c5.199 0 9.45-4.614 9.45-10.254 0-5.639-4.251-10.257-9.45-10.257H35.698a6.18 6.18 0 0 1-.903-.068h-.019c-.069-.01-.134-.022-.203-.035h-.012c-.106-.021-.216-.043-.322-.071h-.013l-.134-.038h-.003l-.106-.031v-.006h-.019a6.129 6.129 0 0 1-.422-.144h-.01a2.947 2.947 0 0 1-.174-.072h-.006a6.217 6.217 0 0 1-.916-.478c-.037-.022-.072-.047-.11-.069l-.005-.003a2.111 2.111 0 0 1-.107-.072h-.003c-.1-.068-.197-.14-.29-.212v-.006h-.01c-.047-.038-.093-.072-.137-.11l-.038-.031v-.006h-.006c-.084-.072-.169-.144-.25-.222l-.037-.034-.003-.004c-.013-.009-.022-.021-.032-.03v-.007h-.006l-.031-.031v-.007h-.006l-.032-.028V12.4h-.009l-.028-.028v-.01h-.01l-.028-.028v-.006h-.006l-.028-.028v-.006h-.006l-.028-.032v-.006h-.007l-.03-.034-.004-.003a11.321 11.321 0 0 1-.256-.284v-.01h-.01l-.028-.034c-.05-.06-.096-.122-.146-.181-.038-.047-.072-.097-.11-.144l-.072-.1v-.01h-.006a6.986 6.986 0 0 1-.325-.506v-.009h-.006a5.156 5.156 0 0 1-.14-.253v-.003c-.038-.072-.073-.14-.11-.216v-.006h-.003c-.013-.022-.022-.047-.035-.069v-.006a5.673 5.673 0 0 1-.109-.24v-.016h-.006l-.028-.072v-.003a4.39 4.39 0 0 1-.072-.181 3.19 3.19 0 0 1-.038-.097v-.016h-.006c-.01-.028-.022-.06-.031-.09V9.65h-.006a9.209 9.209 0 0 1-.178-.59c-.029-.107-.05-.21-.075-.316v-.016c-.013-.056-.022-.116-.035-.175v-.01a4.904 4.904 0 0 1-.034-.209V8.29h-.006c-.01-.075-.022-.15-.028-.225v-.035h-.004c-.015-.131-.025-.262-.034-.393v-.16h-.006c-.003-.097-.006-.193-.006-.29 0-.1 0-.2.006-.3h.006v-.153c.01-.135.019-.269.034-.4v-.028c.01-.078.02-.153.032-.232h.006V6.03c.012-.072.022-.144.037-.216.013-.065.022-.125.035-.184v-.01c.01-.046.018-.093.031-.137h.006v-.028c.031-.14.069-.278.11-.416.009-.04.021-.075.03-.109h.007v-.016c.01-.03.022-.062.031-.096h.007v-.02l.03-.093h.007v-.016c.013-.03.022-.062.034-.096h.004v-.01c.043-.122.093-.24.143-.36h.003v-.008c.047-.11.097-.216.147-.322l.075-.147c.044-.088.09-.175.14-.26h.01v-.015l.035-.06c.056-.102.118-.2.178-.293h.006v-.01c.022-.034.044-.068.069-.103h.006v-.009c.022-.034.047-.069.072-.103.068-.103.14-.2.215-.294h.007v-.006c.046-.06.096-.119.143-.178l.028-.038h.01v-.009c.093-.11.193-.219.293-.322l.035-.037.034-.038.035-.037.037-.038c.106-.103.212-.2.325-.293h.01v-.007l.037-.03.181-.148c.187-.146.381-.28.584-.406h.006c.06-.04.12-.075.182-.11h.003l.062-.037h.013V.86c.165-.09.337-.175.509-.25h.006c.056-.028.113-.05.169-.075h.016V.528c.059-.025.118-.047.178-.069h.006c.069-.028.14-.05.21-.075h.009c.037-.015.072-.025.109-.037.04-.013.084-.025.128-.038h.022V.303c.15-.04.303-.075.46-.106h.018c.066-.016.134-.028.2-.038h.022a4.25 4.25 0 0 1 .278-.037h.053V.116c.175-.016.353-.025.534-.025 6.933 0 12.981.012 18.577.028h.065c3.359.01 6.555.022 9.673.037h.034l7.97.038h.04l8.074.037h.037c3.268.013 6.627.028 10.182.038h.025c5.13.015 10.666.025 16.921.025 15.933.153 14.587 4.392 19.682 7.538 3.034 1.875 8.354 3.359 20.97 3.359 7.773 0 13.965-.29 19.061-.238 26.071.275 35.219 31.296 21.601 46.61-4.712 5.3-14.719 15.175-15.431 25.538-.497 7.207 6.714 17.767 29.521 21.723h41.308c.475 0 .947.018 1.412.059v.006h.053c.228.019.46.044.685.075.084.009.171.022.256.034l.022.004.237.037h.003c.209.034.416.069.622.109h.006c.319.063.637.135.953.216v.006h.019l.128.035h.009l.138.037c.084.025.172.05.256.072a21.13 21.13 0 0 1 1.103.362v.007h.015l.094.037c.247.094.494.191.734.294l.072.031v.006h.013c.081.035.162.072.243.11h.003c.425.193.844.4 1.25.624l.256.144.007.003a18.555 18.555 0 0 1 1.28.809l.007.004c.034.025.068.046.106.071l.256.182c.147.106.294.215.441.328l.006.003c.109.084.219.172.328.259.075.06.147.122.222.181.072.06.147.122.218.185l.035.031v.006h.006c.263.225.519.459.769.7l.037.034c.125.119.247.241.366.363v.006h.006l.031.031.003.003.032.035.003.003.031.034.003.003.034.035a22.178 22.178 0 0 1 .697.768v.007h.003c.388.446.753.915 1.103 1.399v.003c.063.085.122.172.181.257.075.106.147.215.222.324v.007h.003c.022.034.047.068.069.103v.006h.006l.069.106v.003a18.63 18.63 0 0 1 .365.588l.11.184c.112.194.225.391.331.587l.034.066v.009h.003c.207.385.403.778.585 1.178.087.194.175.388.256.581v.007h.003c.103.24.2.484.291.731v.006c.037.097.071.194.109.29v.004c.012.034.025.068.034.1v.009h.003c.091.253.175.506.257.762v.013h.003l.034.109c.078.256.153.512.222.772l.037.14v.007c.013.046.022.093.035.14v.006c.05.207.1.413.147.622v.006c.012.057.025.113.034.169v.016h.003c.038.184.075.368.106.553l.038.206v.016l.034.209v.012c.041.257.078.513.109.769v.006l.038.319v.012c.012.119.025.238.034.353v.016c.013.147.025.294.035.444v.075h.003c.015.215.025.434.031.653v.121h.003c.006.219.013.441.013.663 0 .222-.003.443-.013.665h-.003v.119c-.006.219-.019.437-.031.653h-.003v.072c-.01.15-.022.297-.035.446v.013a7.156 7.156 0 0 1-.037.356v.009c-.01.097-.022.191-.031.288h-.007v.037c-.031.26-.068.516-.109.772v.009l-.034.213v.012c-.044.257-.091.51-.144.763v.012l-.038.172a16.947 16.947 0 0 1-.184.775c-.09.35-.187.693-.29 1.034v.009c-.01.035-.022.066-.032.1h-.006v.016c-.069.219-.144.434-.219.65v.006l-.037.103c-.034.1-.072.197-.109.294-.094.25-.191.497-.294.737a16.718 16.718 0 0 1-.291.666v.006c-.172.375-.356.74-.55 1.1v.006a21.058 21.058 0 0 1-.849 1.434c-.025.037-.047.075-.072.109h-.003a1.473 1.473 0 0 1-.072.109 1.752 1.752 0 0 1-.072.11c-.025.037-.047.075-.072.109-.084.125-.172.247-.259.369l-.106.147h-.004v.006c-.109.147-.218.294-.331.437-.047.063-.093.125-.143.185h-.007v.006c-.047.059-.097.119-.143.178h-.004c-.05.066-.096.125-.146.184-.072.088-.147.172-.219.26-.241.278-.484.549-.737.812l-.035.037-.034.038-.034.037-.035.038-.034.037c-.072.075-.147.15-.219.222l-.037.038c-.275.268-.556.525-.844.774h-.003c-.203.179-.412.35-.622.516h-.003c-.059.053-.122.1-.184.147a2.66 2.66 0 0 1-.147.109c-.219.166-.437.325-.662.478l-.107.075h-.003c-.109.078-.218.15-.331.222-.097.062-.19.125-.287.184h-.007c-.181.116-.365.225-.553.331a16.458 16.458 0 0 1-1.759.885h-.006c-.084.04-.172.075-.256.109-.122.05-.244.1-.365.147-.097.037-.191.075-.288.109h-.009c-.325.122-.656.231-.991.331h-.006c-.172.053-.344.1-.515.147l-.138.038h-.009c-.044.015-.091.025-.135.037h-.012c-.047.016-.094.025-.144.038h-.003c-.222.053-.444.103-.668.146h-.032v.007a3.298 3.298 0 0 1-.168.031h-.016c-.219.044-.437.078-.659.109h-.041v.007c-.081.012-.162.021-.24.031h-.016c-.097.015-.197.025-.294.037l-.378.038h-.062v.006c-.163.012-.325.025-.491.031h-.028c-.284.016-.572.025-.859.025h-2.128c-9.828 0-17.873 8.726-17.873 19.395 0 10.67 8.045 19.395 17.873 19.395h39.937c.338 0 .672.007 1.009.019v.01h.241c.24.009.478.021.718.034h.013l.428.028v.006h.103c.113.01.225.019.337.032v.006h.069c.125.012.25.022.372.037h.006c.11.013.216.022.325.038h.01c.084.009.165.022.249.031v.006h.044c.085.01.166.019.25.031v.007h.044c.072.009.14.018.212.031v.006h.047c.072.01.141.022.213.031l.028.004c.075.012.153.021.228.034h.012c.144.022.288.047.431.072h.01c.059.009.115.022.175.031v.006h.028c.066.013.128.022.194.035h.012c.056.009.116.018.172.031v.006h.031c.053.01.103.022.153.031l.022.004c.053.009.109.021.163.034h.012l.172.034h.006c.269.056.538.119.806.185h.006c.047.012.094.021.141.034l.013.003c.043.013.09.022.134.031v.007h.022c.043.009.084.021.128.034l.012.003.135.038h.003c.306.081.612.165.918.256h.01l.1.031v.006h.025l.125.038c.037.012.075.022.109.031l.016.003.096.028v.006h.022l.088.029v.009h.025c.15.047.303.097.453.147.209.068.418.143.625.215v.007h.012c.031.012.066.021.097.034h.006l.103.037c.025.01.05.016.072.025v.013h.031a.811.811 0 0 1 .082.031v.006h.018c.032.013.063.025.094.035l.181.069.01.003c.093.037.19.072.284.109h.003c.122.047.244.097.366.147.087.034.172.072.259.106l.009.003.175.072.072.028v.006h.019c.081.035.159.072.24.107l.01.003a28 28 0 0 1 .728.331l.072.034h.006l.069.032.009.003.066.031v.006h.012c.419.2.831.409 1.24.625l.332.178v.006h.009l.062.035h.007l.253.14v.007h.012l.063.034h.003l.181.103v.006h.013l.062.035c.084.05.172.096.256.146.063.038.122.075.185.11.1.059.196.119.293.178v.006h.01c.059.034.118.072.175.106l.006.003c.034.022.069.041.106.063v.009h.016c.056.035.112.072.168.11.038.022.072.047.107.068l.006.004a24.632 24.632 0 0 1 .878.581v.009h.012c.035.022.066.044.1.069v.006h.01c.034.022.068.047.1.069v.006h.006l.25.178v.006h.006c.172.122.341.244.509.369.16.119.319.241.478.362v.01h.01c.047.034.09.068.137.106v.006h.006l.178.141v.006h.01c.047.038.094.072.137.109l.185.147c.059.05.121.097.181.147.075.059.147.122.222.184l.037.032v.006h.006l.178.147.038.031v.006h.006c.072.06.144.122.213.185l.034.031v.006h.006c.085.072.169.147.253.222l.331.294.038.034.003.003c.147.134.294.266.437.403l.035.031v.007h.006l.031.031v.006h.007l.031.028v.01h.009l.028.028v.009h.01c.437.416.865.844 1.281 1.281v.009h.009l.028.032v.006h.006l.032.031.003.003.031.035.034.037c.138.144.272.291.406.437l.004.004.034.037c.087.094.172.191.259.287v.01h.007l.028.031.003.003.034.038c.063.068.122.14.184.212v.01h.007l.028.034c.072.084.147.169.218.256.122.144.247.291.366.441v.003c.047.059.097.118.144.178v.006h.006l.141.172v.012h.009s.019.022.028.035v.003c.038.047.072.094.109.137v.01h.007c.047.059.093.118.14.181l.003.003c.16.206.319.416.475.625v.003l.11.147c.025.031.05.065.071.097v.012h.01l.028.038c.025.034.05.065.075.1v.012h.009c.035.047.069.097.103.144v.003c.025.034.047.069.072.1v.009h.007l.103.147c.087.122.171.244.256.366.025.034.047.072.072.109.025.034.047.072.072.106v.003l.071.107v.006h.003c.025.034.047.069.072.106v.006h.003c.022.035.047.069.069.103v.007h.006c.022.034.047.068.069.103v.009h.006l.069.106v.003c.113.172.222.344.331.516.1.159.197.319.294.478.037.059.075.122.109.181l.035.06v.015h.009l.066.106v.007c.012.018.022.04.034.059v.016h.009l.104.178v.006h.003c.162.278.318.559.475.843v.007h.003l.034.062v.013h.006c.06.109.119.215.178.325v.006h.003c.013.022.022.044.035.065v.01h.006c.009.022.022.04.031.062v.013h.007l.031.059v.013h.006c.213.409.422.821.619 1.237v.016h.009l.028.059v.016h.006l.029.062v.009h.006l.031.069v.003c.075.16.147.319.219.478.087.194.172.388.256.581v.01h.003c.034.084.072.165.106.247v.009h.003c.022.053.047.106.069.162v.025h.009l.029.066v.006l.071.175v.01h.004c.025.056.046.115.068.171v.013h.003c.072.181.147.365.216.547v.006c.037.094.072.19.109.287v.01h.003l.107.284v.009h.003l.031.091v.022h.006l.103.293.038.104v.009c.1.287.197.575.294.865v.019h.006l.031.094v.019h.006c.01.031.022.062.032.096v.016h.006c.009.034.022.066.031.097v.012h.003c.013.035.022.072.031.107v.003c.025.081.047.162.072.24v.016h.007l.031.106v.003c.075.253.15.506.218.763v.012h.004c.025.084.046.169.068.256v.003c.013.044.025.088.035.132v.018h.006c.009.041.022.078.031.119v.028h.006l.029.119v.028h.006c.103.397.197.797.287 1.197v.018h.003l.032.144v.003l.037.159v.025h.006l.032.15v.035h.006a34.228 34.228 0 0 1 .25 1.315v.013c.012.065.025.131.034.193v.025h.006c.013.066.022.132.032.197v.025h.003c.012.072.022.144.031.213v.006c.053.34.103.681.147 1.025v.043h.006c.009.082.022.16.031.238v.056h.007l.028.253v.078h.009l.028.269v.025c.025.247.05.493.072.74v.031c.013.138.025.275.034.416v.103h.01c.012.153.019.306.028.462v.057h.003c.012.212.025.421.034.634v.066c.022.493.032.987.035 1.487v.378c0 .5-.013.999-.035 1.493v.059c-.009.204-.018.403-.031.607h-.006v.084l-.028.469h-.006v.093c-.01.141-.022.281-.035.422v.025c-.012.141-.022.278-.037.419-.01.112-.022.221-.035.331v.019l-.028.278h-.006v.068a7.847 7.847 0 0 1-.031.263h-.007v.047c-.009.081-.021.165-.031.246h-.006v.038c-.034.259-.069.519-.109.775v.015l-.032.203h-.006v.038l-.028.184h-.009v.057l-.029.165h-.009v.056l-.028.166h-.006v.041c-.066.381-.138.762-.216 1.14h-.006v.025c-.009.053-.022.106-.031.159h-.007v.025c-.012.053-.021.106-.034.16h-.003v.018l-.028.131h-.006v.035c-.013.05-.022.1-.035.15v.012c-.025.107-.047.213-.072.322v.006c-.056.244-.118.491-.178.731h-.006v.022c-.009.041-.022.085-.031.125h-.006v.022l-.032.125h-.006v.022l-.034.128v.009c-.022.085-.047.166-.069.25h-.006v.019l-.035.128v.006c-.081.294-.168.588-.256.881v.01c-.009.034-.022.069-.031.103h-.006v.019c-.025.078-.047.159-.072.237l-.035.109v.007c-.012.034-.021.068-.034.103v.009l-.034.1h-.003v.013l-.032.1h-.003v.012a41.25 41.25 0 0 1-.218.65v.006l-.038.106-.103.294h-.006v.019l-.032.09h-.006v.013l-.034.097c-.022.062-.047.125-.069.184h-.006v.013l-.038.097c-.084.221-.168.443-.256.665v.006c-.025.06-.05.119-.072.178l-.075.185-.028.075h-.006v.018a2.503 2.503 0 0 1-.069.166h-.006v.016c-.025.056-.05.112-.072.168l-.031.075h-.006v.013a35.03 35.03 0 0 1-.369.834l-.034.075h-.004v.006c-.062.134-.121.266-.184.4l-.034.075h-.003v.006l-.032.066h-.003v.009c-.009.022-.022.044-.031.066h-.006v.009l-.031.063h-.007v.012c-.153.319-.312.634-.475.947h-.006v.009l-.034.063h-.003v.009l-.035.066v.006l-.034.069c-.012.028-.025.05-.038.075-.059.112-.118.221-.178.331h-.006v.009l-.034.063c-.122.225-.244.446-.369.665-.034.063-.072.125-.106.184h-.006v.01c-.035.059-.066.119-.1.175h-.01v.015l-.034.057h-.003v.006l-.106.178h-.007v.006c-.034.06-.071.119-.106.178h-.003v.007l-.109.178c-.038.062-.072.125-.11.184-.084.137-.172.272-.256.406l-.069.109h-.003v.007l-.065.103h-.007v.012l-.062.1h-.009v.016c-.25.381-.507.756-.769 1.128h-.006v.009l-.072.103-.103.147h-.006v.009l-.072.1c-.035.053-.072.1-.107.147h-.003v.006c-.034.047-.072.094-.106.144h-.006v.006c-.147.197-.294.391-.441.585-.047.062-.093.125-.143.184h-.007v.006c-.037.047-.071.094-.109.141l-.028.037h-.009v.013l-.11.137-.028.038h-.009v.012c-.047.06-.094.116-.141.172h-.006v.006c-.047.06-.097.119-.144.178-.122.15-.244.297-.368.444-.072.088-.147.172-.222.259l-.032.038h-.006v.006l-.025.031h-.012v.013c-.06.069-.122.14-.185.209l-.034.038h-.003l-.028.037h-.006v.01c-.085.096-.172.19-.26.287-.168.187-.34.372-.515.553l-.035.037-.031.038h-.006v.006l-.031.031h-.007v.007l-.028.028h-.009v.009l-.025.028h-.013v.013l-.025.025h-.012v.012c-.3.31-.606.613-.915.909h-.007v.007l-.031.031h-.006v.006l-.035.031h-.003l-.034.038-.034.037c-.157.15-.316.297-.475.444h-.007l-.034.037c-.122.113-.244.222-.365.332-.085.075-.166.15-.25.221h-.007v.007l-.034.031c-.069.062-.138.125-.209.184h-.013v.01l-.031.025h-.006a5.876 5.876 0 0 1-.216.184h-.006c-.147.128-.294.25-.441.369-.062.05-.122.1-.184.146l-.141.11h-.009v.006l-.178.141h-.006v.006c-.044.034-.091.072-.138.106h-.012v.01c-.063.046-.122.093-.185.137l-.146.109c-.05.038-.097.075-.147.11-.135.1-.269.197-.403.293l-.1.075h-.01v.007l-.143.103-.1.075h-.01v.006c-.031.022-.062.044-.097.066h-.015v.009c-.085.059-.172.115-.256.175l-.107.075h-.003c-.147.1-.293.2-.44.293-.094.063-.191.125-.285.185h-.009v.006l-.103.066h-.006c-.038.028-.072.05-.11.075l-.056.037h-.015v.01c-.035.021-.069.043-.107.062h-.006c-.059.041-.119.075-.175.109h-.009v.007c-.097.059-.197.121-.294.178-.084.05-.169.097-.253.147h-.006c-.085.053-.169.1-.253.146h-.007c-.084.05-.165.1-.249.147h-.01l-.059.038h-.016v.009l-.256.141-.069.037h-.006c-.159.091-.319.175-.478.259l-.072.038-.072.037h-.003l-.069.038h-.006l-.069.037h-.006l-.065.038h-.007c-.022.016-.043.025-.065.037h-.01l-.062.038h-.009v.006c-.022.01-.041.022-.063.031h-.012v.007l-.063.031h-.009v.006c-.022.009-.044.022-.066.031h-.006c-.025.016-.047.025-.072.038-.316.153-.631.3-.95.443h-.009c-.081.041-.16.075-.241.11h-.018v.009l-.066.028h-.009c-.054.028-.11.05-.166.075h-.019v.01l-.069.028h-.003l-.175.075h-.012c-.084.04-.169.075-.256.109-.157.063-.313.125-.469.184h-.012c-.06.029-.119.05-.182.075h-.003c-.031.013-.062.025-.09.038h-.019v.006l-.178.066h-.006c-.032.015-.066.025-.097.037h-.016v.007c-.031.009-.059.021-.09.031h-.022v.006l-.291.103h-.003c-.181.063-.362.125-.544.184h-.009l-.103.038h-.006l-.107.037h-.003l-.109.038-.113.037h-.034v.013c-.028.009-.059.015-.087.025h-.025v.006a.903.903 0 0 0-.1.031h-.01c-.122.041-.243.075-.365.11h-.003a23.97 23.97 0 0 1-.663.184l-.137.038h-.01l-.128.037h-.018v.006l-.125.032h-.022v.006c-.044.009-.088.022-.131.031h-.016c-.047.016-.094.025-.141.038h-.009l-.147.037c-.219.053-.44.1-.662.147l-.172.037h-.013l-.165.038h-.019c-.053.015-.109.025-.162.037h-.022c-.06.016-.122.025-.181.038h-.041v.006a3.438 3.438 0 0 0-.166.031h-.021c-.063.016-.122.025-.185.038-.228.04-.459.075-.687.109h-.05v.006l-.191.028h-.065v.01l-.206.028h-.054v.006c-.081.01-.162.019-.243.031h-.016c-.209.029-.422.054-.631.075h-.031c-.116.016-.231.025-.347.038h-.097v.009l-.347.028h-.097v.007c-.146.009-.29.022-.437.031h-.006c-.269.016-.534.028-.803.037h-.341v.01c-.237.006-.475.009-.712.009H56.774c-1.022 0-2.037-.034-3.046-.094l-.016.035Z" clip-rule="evenodd"/><path fill="#7DBF8C" d="M29.765 242.414c6.108-2.24 12.716-1.681 19.127-1.097-6.858-5.923-12.547-13.518-16.559-22.094a83.224 83.224 0 0 1 17.92 8.035c2.422 1.444 4.874 3.112 6.355 5.696-4.464-7.683-7.426-16.452-8.607-25.516 7.376 4.743 14.037 10.866 19.63 18.036a119.818 119.818 0 0 1-3.262-26.296c5.467 5.47 10.12 11.944 13.718 19.086a54.838 54.838 0 0 1 1.875-14.612 46.075 46.075 0 0 1 5.405 8.913l17.073 45.376c-21.025 0-59.881 2.45-72.678-15.527"/><path fill="#014169" fill-rule="evenodd" d="m31.462 50.084 9.65-2.277h73.407c8.566 0 12.278 4.79 14.305 9.747l75.953 185.769c3.909 9.56-6.686 14.903-12.044 14.903h-85.897c-5.361 0-12.48-4.584-15.061-11.354l-67.3-176.633c-1.061-2.79-1.374-5.105-1.149-6.98.313-2.568 6.442-12.778 8.132-13.175" clip-rule="evenodd"/><path fill="#025A91" fill-rule="evenodd" d="M36.517 47.81h83.269c8.567 0 12.397 4.74 14.306 9.747l70.245 184.373c2.924 7.673-3.706 11.54-9.067 11.54h-81.195c-5.361 0-12.481-4.583-15.059-11.353L30.031 61.053c-3.502-9.188 1.124-13.246 6.486-13.246" clip-rule="evenodd"/><mask id="b" width="168" height="186" x="35" y="57" maskUnits="userSpaceOnUse" style="mask-type:luminance"><path fill="#fff" d="M39.644 57.02c-5.446 0-4.961 4.949-3.468 8.866l63.8 167.483h98.481l3.605 9.46-67.861-178.142c-2.018-5.299-5.58-7.667-11.287-7.667h-83.27Z"/></mask><g mask="url(#b)"><path fill="#6BA6CB" d="M202.062 57.02H34.198v185.809h167.864V57.02Z"/></g><path fill="#025A91" fill-rule="evenodd" d="m99.975 233.369 2.8 7.348c1.031 2.709 3.015 5.062 5.355 6.742 1.834 1.319 4.383 2.534 6.689 2.534h81.195c.968 0 1.968-.175 2.887-.497 3.236-1.127 4.414-3.374 3.158-6.667l-3.605-9.46H99.972h.004Z" clip-rule="evenodd"/><path fill="#F59CA0" d="M169.849 108.11c-.944-5.452 9.154-8.9 11.984-1.952 2.781 6.823 2.1 30.936 2.1 30.936s18.236 11.85 20.304 11.65c2.774-.269 9.71 7.52 8.869 8.744-.815 1.188-4.327 2.225-6.804 1.5-2.05-.603-4.027-4.383-4.818-5.005-4.005-1.384-23.2-7.917-25.749-10.201-2.55-2.277-5.274-32.113-5.886-35.672Z"/><path fill="#FFB900" d="M290.596 152.608s.987-2.839 4.03-3.333c4.168-.678 7.623 4.13 7.623 4.13l3.843-1.131s-2.687-4.002-7.76-4.83c-6.911-1.128-10.279 3.54-10.279 3.54l2.546 1.624h-.003Z"/><path fill="#FFB900" d="M287.256 157.035s-1.612-14.59-6.479-13.634c-4.865.959-5.521 10.538-3.506 12.269 2.318 1.993 8.517 2.381 8.517 2.381l-4.402 3.177s-2.496-.584-5.767-5.142c-3.521-4.899-.606-13.256 4.039-13.703 5.368-.513 13.331 8.994 13.331 8.994l-5.733 5.655v.003Z"/><path fill="#FFB900" d="M287.497 143.583c-1.715-3.953-4.711-7.136-7.639-7.77l1.981-2.353s10.519.544 8.07 16.452l-1.997-.518s1.637-1.094-.412-5.811"/><path fill="#FFB900" d="M291.88 148.697c3.824-4.499 7.202-9.204 9.126-8.717 1.928.488-.453 8.576-9.96 11.929l1.153 6.835s6.089-5.773 9.391-14.237c3.306-8.466-5.189-7.845-12.222 4.365l2.512-.178v.003Z"/><path fill="#89C8DF" d="m309.291 167.289-47.353-16.224-12.975 40.484 47.354 16.224 12.974-40.484Z"/><path fill="#A2E0F6" d="m310.516 167.945-49.456-16.992 3.246-10.757 50.39 17.408-4.18 10.341Z"/><path fill="#FFB900" d="m277.268 201.312-6.348-2.197 15.752-51.243 6.349 2.196-15.753 51.244Z"/><path fill="#BA3532" d="m245.251 171.419-1.905-9.978a9.097 9.097 0 0 1 1.374-6.796 8.925 8.925 0 0 1 5.727-3.821 8.86 8.86 0 0 1 6.723 1.391 9.036 9.036 0 0 1 3.78 5.786l1.909 9.979a.67.67 0 0 0 .788.537.68.68 0 0 0 .531-.797l-1.909-9.979c-1.081-5.651-6.489-9.344-12.081-8.254-5.593 1.091-9.251 6.558-8.167 12.21l1.906 9.975c.071.369.425.61.787.538a.678.678 0 0 0 .531-.797"/><path fill="#FF5665" d="m265.393 162.497-40.093 7.829 6.12 57.526 40.097-7.829-6.124-57.526Z"/><path fill="#DD4845" d="m272.429 161.122-7.036 1.374 6.124 57.527 16.445-3.215-15.533-55.686Z"/><path fill="#BA3532" d="m271.517 220.023 6.798-9.051 9.647 5.836-16.445 3.215ZM235.276 174.156a1.692 1.692 0 0 1 1.324-1.981 1.672 1.672 0 0 1 1.959 1.341 1.69 1.69 0 0 1-1.324 1.98 1.672 1.672 0 0 1-1.959-1.337M254.202 170.46a1.693 1.693 0 0 1 1.325-1.981 1.676 1.676 0 0 1 1.962 1.338 1.691 1.691 0 0 1-1.325 1.98 1.673 1.673 0 0 1-1.962-1.337Z"/><path fill="#BA3532" d="m237.435 172.947-1.909-9.979a9.109 9.109 0 0 1 1.374-6.795 8.933 8.933 0 0 1 5.724-3.821 8.867 8.867 0 0 1 6.726 1.39 9.043 9.043 0 0 1 3.781 5.787l1.908 9.978a.671.671 0 1 0 1.319-.259l-1.909-9.979c-1.081-5.651-6.489-9.347-12.081-8.254-5.593 1.09-9.248 6.558-8.164 12.206l1.909 9.979a.67.67 0 0 0 .787.537.682.682 0 0 0 .535-.796"/><path fill="#025A91" d="m214.503 172.413 91.892 5.448.035-.593-.435.403c.094.106.25.184.4.19l.035-.593-.435.403.432-.4h-.585c0 .156.06.294.153.4l.432-.4h-.585.581l-.546-.2-.032.2h.582l-.547-.2-4.84 13.528-8.972 25.084-64.078 11.235-15.449-68.28-1.209.278 1.212-.259a4.761 4.761 0 0 0-3.833-3.73l-.21 1.231.266-1.222-10.473-2.337a1.237 1.237 0 0 0-1.474.953c-.15.675.272 1.343.94 1.49l10.469 2.337.057.009c.915.16 1.64.866 1.834 1.781v.022l15.711 69.436c.147.65.772 1.068 1.422.956l65.943-11.566c.44-.075.799-.384.952-.806l9.217-25.769 4.839-13.534c.075-.212.113-.431.113-.65 0-.493-.185-.949-.5-1.293a1.88 1.88 0 0 0-1.281-.612l-91.896-5.449a1.245 1.245 0 0 0-1.309 1.175 1.247 1.247 0 0 0 1.166 1.321"/><path fill="#025A91" d="m297.013 175.909-12.018 42.102a.419.419 0 0 0 .284.518.411.411 0 0 0 .509-.284l12.016-42.102a.413.413 0 1 0-.794-.231M287.035 175.296l-9.573 44.061a.416.416 0 0 0 .312.497.412.412 0 0 0 .491-.319l9.573-44.061a.418.418 0 0 0-.313-.496.41.41 0 0 0-.49.318ZM277.018 174.678l-7.017 46.013a.417.417 0 0 0 .347.475.413.413 0 0 0 .469-.35l7.02-46.013a.417.417 0 0 0-.347-.475.417.417 0 0 0-.472.35ZM266.965 174.059l-4.359 47.954a.42.42 0 0 0 .375.453.41.41 0 0 0 .447-.375l4.358-47.954a.412.412 0 1 0-.821-.075M256.877 173.434l-1.597 49.885a.416.416 0 0 0 .4.431.413.413 0 0 0 .425-.403l1.596-49.888a.417.417 0 0 0-.396-.431.413.413 0 0 0-.425.403M246.748 172.806l1.275 51.809a.411.411 0 1 0 .824-.022l-1.274-51.809a.411.411 0 0 0-.422-.406.418.418 0 0 0-.403.428ZM236.582 172.178l4.249 53.724a.412.412 0 1 0 .821-.062l-4.245-53.724a.414.414 0 1 0-.825.069M222.888 171.569l10.819 55.63a.416.416 0 0 0 .485.328.421.421 0 0 0 .325-.49l-10.82-55.627a.414.414 0 0 0-.484-.331.42.42 0 0 0-.325.49Z"/><path fill="#025A91" d="m218.98 188.859 83.213 2.583a.413.413 0 0 0 .425-.406.413.413 0 0 0-.4-.428l-83.216-2.584a.416.416 0 0 0-.425.407.416.416 0 0 0 .4.428M223.432 211.362l74.006-5.501a.416.416 0 0 0 .381-.447.41.41 0 0 0-.44-.384l-74.006 5.501a.417.417 0 0 0 .056.831M226.272 228.071l-7.342 21.16.771.29-.743-.362a2.665 2.665 0 0 0-.266 1.159c0 .706.278 1.365.747 1.856.462.49 1.14.812 1.893.809h61.144a.828.828 0 0 0 .825-.834.828.828 0 0 0-.825-.834h-61.144a.966.966 0 0 1-.709-.3 1.016 1.016 0 0 1-.281-.697c0-.14.031-.284.1-.434l.031-.075 7.342-21.16a.837.837 0 0 0-.487-1.072.82.82 0 0 0-1.059.494"/><path fill="#025A91" fill-rule="evenodd" d="m226.244 233.728 62.478-12.156a.823.823 0 0 0 .39-.194l4.43-3.961a.837.837 0 0 0 .069-1.175.817.817 0 0 0-1.165-.072l-4.259 3.809-62.253 12.112a.832.832 0 0 0-.653.975c.088.453.519.75.966.662" clip-rule="evenodd"/><path fill="#FF5665" d="m208.167 154.036-10.307-2.69a2.456 2.456 0 0 0-2.999 1.759 2.457 2.457 0 0 0 1.759 2.999l10.31 2.69a2.456 2.456 0 0 0 2.999-1.759 2.46 2.46 0 0 0-1.759-2.999"/><path fill="#fff" d="M193.246 256.407c.368.6.121 1.825-2.547 2.884-2.671 1.056-7.548.709-9.491.397-1.94-.31-3.13-.797-5.983-.207-2.852.591-7.551.435-8.998-.628-.503-.506-.193-1.574-.193-1.574l27.212-.872Z"/><path fill="#444" d="M167.405 249.275c-.356 1.78-1.871 5.983-1.368 8.001 2.043 1.502 6.354 1.534 9.569.743 3.215-.79 5.521.666 9.579.813 3.984.143 7.28-.91 8.061-2.428.853-1.659-6.124-2.809-10.888-4.04-5.33-1.384-8.117-3.689-8.117-3.689l-6.839.6h.003Z"/><path fill="#F6A9AB" d="m167.868 242.201.14 7.074s.878.256 1.25.653c.372.396.897 1.721 1.509 1.734 2.437.053 3.812-2.984 3.812-2.984l-.013-6.452-6.704-.021.006-.004Z"/><path fill="#014169" d="M178.652 141.614c-7.923 0-14.939.191-14.939.191-2.534 1.109-6.883 6.867-8.164 10.522-1.281 3.665-.759 9.77-.091 12.916 3.721 17.523 8.001 27.718 9.445 34.669.884 4.246-.931 4.458-.931 15.231 0 9.635 3.483 28.446 3.483 28.446s3.837 1.159 7.761-.025c0 0 2.309-33.055 2.959-36.935 1.055-6.286 1.421-8.923 1.54-19.804.165-15.3-1.059-45.211-1.059-45.211"/><path fill="#025A91" d="M133.027 233.369s19.388-22.66 21.235-24.697c1.846-2.04 15.44-42.214 15.927-45.226 0 0 7.486-7.62 7.708-13.949l-24.301-12.169c-1.031 3.883-1.877 4.021-2.58 14.168-.356 5.171-7.601 26.481-8.411 51.703 0 0-2.508 1.343-6.31 5.045-3.109 3.028-14.953 25.128-14.953 25.128h11.685"/><path fill="#025A91" d="M151.016 151.493c-.357 5.171-1.494 26.481-2.303 51.703 0 0-2.509 1.343-6.311 5.045-3.108 3.028-13.121 21.426-13.121 21.426s.281.925 1.015 2.003c2.29-4.721 8.966-15.803 11.897-19.845 3.711-5.118 8.063-6.652 8.823-7.292.762-.638.39-2.815.646-7.676.257-4.865 3.103-46.832 3.103-46.832l-3.149-4.796c-.21 1.55-.41 3.546-.597 6.267"/><path fill="#F6A9AB" d="m167.693 95.657 7.851 7.667 3.352-7.951-8.054-8.523-3.149 8.807Z"/><path fill="#E76E76" d="M177.494 98.697s-7.864-6.02-6.652-11.85l8.054 8.526-1.402 3.324Z"/><path fill="#F6A9AB" d="M170.864 86.847s.175 1.29.453 2.296c.278 1.003 6.698 5.98 8.545 6.752 1.846.768 4.495 1.093 5.779-5.43 1.288-6.524 1.219-12.507-2.233-16.593-3.456-4.09-10.317-2.612-14.05.753-3.733 3.365-3.233 12.166 1.506 12.225"/><path fill="#7DBF8C" d="M181.421 112.297c.706 3.252 7.613 12.431-1.509 16.327.284 7.317 3.664 29.364 3.664 29.364s-10.231 3.346-19.642 2.593c-8.988-.721-17.198-4.598-17.198-4.598s5.217-34.345 8.173-46.098c4.364-12.119 10.566-14.225 10.566-14.225l4.014 1.625 6.055 6.042 1.321-3.137c9.164 6.352 5.524 9.873 4.556 12.107Z"/><path fill="#F6A9AB" d="M176.291 108.307c-.594.394-2.44-1.906-4.502-4.961-2.065-3.056-3.456-5.727-7.061-5.655l.009-1.684c.469-.256.738-.35.738-.35l4.014 1.625 6.055 6.042.444-1.053c.25.475.896 5.639.306 6.033"/><path fill="#61A570" d="m181.236 140.28-22.069-27.986c.637 4.42 10.244 28.689 10.244 28.689 1.19 3.449 1.231 2.984 2.987 5.758.553.872 8.963 3.79 10.547 4.283-.087-2.565-1.584-7.345-1.706-10.741"/><path fill="#F6A9AB" d="M159.914 113.243c-2.731-8.579 8.051-11.997 10.881-5.248 2.781 6.626 9.829 29.436 9.829 29.436s20.707 13.053 22.775 12.859c2.772-.262 9.711 7.302 8.87 8.492-.812 1.153-4.33 2.162-6.804 1.456-2.05-.585-4.024-4.259-4.818-4.862-4.005-1.346-23.2-7.688-25.75-9.906-2.549-2.216-14.368-28.771-14.983-32.227Z"/><path fill="#444" fill-rule="evenodd" d="M177.569 82.01s6.988.832 9.791-1.212c6.208-4.52 3.193-15.88-11.166-12.912-5.899 1.222-9.61 6.242-12.85 10.432-4.049 5.24-6.395 6.236-8.542 6.72-4.045.915-8.919 3.105-11.116 6.289-3.792 5.496-2.383 13.55 1.347 16.515.025.018 1.4-4.124 4.405-4.249-6.245 6.554 2.231 14.662 3.859 14.243 1.677-8.876 6.895-25.415 16.692-16.062 6.467-.968.887-12.16 1.6-15.052.075-1.243.878-1.143 1.021-1.115.144.03 1.328 1.012 1.328 1.012.288-1.615 1.419-4.433 3.624-4.612" clip-rule="evenodd"/><path fill="#fff" fill-rule="evenodd" d="M232.401 246.894a5.025 5.025 0 1 1-5.023 5.027 5.026 5.026 0 0 1 5.023-5.027Z" clip-rule="evenodd"/><path fill="#025A91" d="M234.807 249.515a3.388 3.388 0 0 0-2.406-.99 3.382 3.382 0 0 0-3.392 3.396c0 .94.378 1.79.99 2.405.615.61 1.465.991 2.402.991.938 0 1.794-.378 2.406-.991.612-.615.99-1.465.99-2.405 0-.941-.378-1.787-.993-2.403l.003-.003Zm-2.406-4.249c1.834 0 3.493.744 4.699 1.95h.006a6.637 6.637 0 0 1 1.95 4.705 6.604 6.604 0 0 1-1.95 4.696l-.006.006a6.647 6.647 0 0 1-9.404 0v-.006a6.63 6.63 0 0 1-1.949-4.696c0-1.831.747-3.493 1.949-4.699v-.006a6.637 6.637 0 0 1 4.705-1.95Z"/><path fill="#fff" fill-rule="evenodd" d="M273.669 246.894a5.029 5.029 0 0 1 5.027 5.027 5.027 5.027 0 0 1-5.027 5.024 5.026 5.026 0 0 1 0-10.051Z" clip-rule="evenodd"/><path fill="#025A91" d="M276.075 249.515a3.402 3.402 0 0 0-2.409-.99c-.943 0-1.787.378-2.399.993h-.003a3.379 3.379 0 0 0-.991 2.403c0 .94.378 1.79.991 2.405h.003a3.41 3.41 0 0 0 4.808 0 3.41 3.41 0 0 0-.006-4.808h.003l.003-.003Zm-2.409-4.249c1.834 0 3.493.744 4.699 1.95h.006a6.637 6.637 0 0 1 1.95 4.705 6.604 6.604 0 0 1-1.95 4.696l-.006.006a6.647 6.647 0 0 1-9.404 0v-.006a6.627 6.627 0 0 1-1.95-4.696c0-1.831.744-3.493 1.95-4.699v-.006a6.637 6.637 0 0 1 4.705-1.95Z"/><mask id="c" width="36" height="37" x="60" y="119" maskUnits="userSpaceOnUse" style="mask-type:luminance"><path fill="#fff" d="M67.006 122.257c8.32-5.733 19.714-3.64 25.447 4.68 5.736 8.32 3.64 19.714-4.68 25.447-5.518 3.802-12.385 4.161-18.058 1.546l-9.108-23.906a18.18 18.18 0 0 1 6.399-7.77"/></mask><g mask="url(#c)"><path fill="url(#d)" d="M98.192 116.524H60.61v40.024h37.58v-40.024Z"/></g><path fill="#fff" d="m77.497 147.4-1.622-20.394 1.806-1.244 1.562 20.436-1.746 1.202Zm11.022-13.334c.819 1.187 1.14 2.359.975 3.515-.172 1.153-.806 2.109-1.906 2.865-1.112.765-2.237 1.025-3.377.775-1.14-.257-2.118-.975-2.937-2.162-.815-1.184-1.134-2.35-.962-3.493.175-1.15.815-2.106 1.927-2.874 1.106-.763 2.222-1.019 3.356-.769 1.13.247 2.102.959 2.921 2.143h.003Zm-1.959 4.911c.428-.296.613-.696.544-1.205-.066-.51-.397-1.194-.987-2.05-.585-.85-1.103-1.396-1.553-1.634-.447-.24-.884-.209-1.312.088-.431.296-.616.693-.55 1.196.062.503.39 1.184.975 2.034.59.856 1.109 1.406 1.562 1.65.45.246.89.218 1.321-.079Zm-12.503-4.995c.816 1.181 1.134 2.346.96 3.499-.173 1.153-.81 2.112-1.913 2.871-1.109.766-2.227 1.022-3.361.775-1.134-.25-2.112-.965-2.93-2.153-.816-1.184-1.138-2.352-.97-3.505.17-1.153.807-2.109 1.916-2.874 1.109-.766 2.23-1.019 3.368-.769 1.137.253 2.112.969 2.93 2.153v.003Zm-1.968 4.896c.431-.297.612-.7.547-1.203-.066-.506-.394-1.187-.981-2.04-.588-.853-1.106-1.4-1.556-1.641-.45-.243-.89-.215-1.319.082-.428.296-.612.696-.543 1.202.062.507.39 1.188.978 2.041.587.852 1.105 1.399 1.555 1.64.447.243.888.215 1.319-.081Z"/><mask id="e" width="53" height="62" x="41" y="71" maskUnits="userSpaceOnUse" style="mask-type:luminance"><path fill="#fff" d="M76.219 74.416c15.23 7.067 21.848 25.143 14.778 40.374-5.43 11.703-17.365 18.32-29.509 17.548l-19.7-51.715c8.76-8.866 22.472-11.756 34.428-6.204"/></mask><g mask="url(#e)"><path fill="url(#f)" d="M98.067 68.867H41.79v64.243h56.277V68.867Z"/></g><path fill="#fff" d="m52.356 108.357 24.553-17.24 3.303 1.535-26.734 18.651-1.122-2.943v-.003Zm25.119 6.814c-1.01 2.174-2.412 3.624-4.205 4.361-1.797.728-3.7.625-5.711-.306-2.034-.943-3.353-2.337-3.959-4.18-.596-1.846-.393-3.852.616-6.027 1.006-2.168 2.402-3.608 4.19-4.324 1.793-.721 3.705-.609 5.738.335 2.025.94 3.334 2.321 3.934 4.155.603 1.828.4 3.821-.606 5.989l.003-.003Zm-8.68 1.343c.788.366 1.516.288 2.185-.24.674-.525 1.371-1.575 2.1-3.14.72-1.556 1.068-2.759 1.027-3.602-.031-.841-.447-1.441-1.234-1.806-.787-.366-1.512-.294-2.178.222-.668.515-1.365 1.556-2.087 3.111-.728 1.566-1.078 2.778-1.043 3.631.028.853.44 1.459 1.228 1.824h.003Zm-3.401-22.11c-1.003 2.162-2.4 3.603-4.2 4.33-1.796.728-3.705.622-5.723-.312-2.03-.94-3.343-2.324-3.946-4.158-.6-1.834-.403-3.837.606-6.011 1.006-2.168 2.406-3.612 4.2-4.343 1.79-.731 3.698-.628 5.726.316 2.03.94 3.34 2.33 3.94 4.17.6 1.84.4 3.843-.607 6.008h.004Zm-8.667 1.313c.787.365 1.515.287 2.184-.235.672-.522 1.368-1.562 2.09-3.124.725-1.562 1.072-2.765 1.034-3.615-.031-.846-.444-1.453-1.23-1.818-.788-.366-1.516-.287-2.182.237-.671.519-1.368 1.563-2.09 3.125-.724 1.562-1.071 2.764-1.034 3.614.031.847.444 1.453 1.228 1.819v-.004Z"/><mask id="g" width="50" height="50" x="85" y="93" maskUnits="userSpaceOnUse" style="mask-type:luminance"><path fill="#fff" d="M105.837 94.01c13.231-2.514 25.996 6.174 28.511 19.408 2.515 13.231-6.173 25.997-19.407 28.512-13.235 2.515-26-6.174-28.512-19.408-2.515-13.231 6.173-25.996 19.408-28.511Z"/></mask><g mask="url(#g)"><path fill="url(#h)" d="M136.863 91.496H83.914v52.949h52.949v-52.95Z"/></g><path fill="#fff" d="m105.093 130.32 9.001-25.743 2.871-.547-9.095 25.762-2.774.528h-.003Zm20.617-10.328c.359 1.887.122 3.489-.703 4.808-.831 1.315-2.118 2.137-3.868 2.471-1.768.337-3.277.044-4.533-.875-1.253-.925-2.059-2.327-2.418-4.214-.36-1.884-.119-3.474.709-4.777.831-1.309 2.131-2.131 3.899-2.465 1.759-.335 3.255-.047 4.505.868 1.247.909 2.046 2.303 2.406 4.187l.003-.003Zm-5.03 4.933c.684-.131 1.121-.522 1.309-1.178.193-.659.159-1.668-.1-3.031-.256-1.352-.594-2.299-1.012-2.83-.416-.531-.966-.731-1.65-.6-.684.131-1.125.516-1.315 1.162-.194.65-.163 1.653.097 3.003.259 1.362.596 2.315 1.018 2.855.419.544.969.747 1.653.616v.003Zm-12.556-12.822c.356 1.878.118 3.471-.713 4.786-.831 1.316-2.124 2.137-3.877 2.472-1.765.334-3.268.046-4.514-.866-1.25-.915-2.056-2.312-2.415-4.202-.36-1.884-.122-3.48.706-4.792.824-1.316 2.118-2.137 3.88-2.472 1.762-.334 3.268-.043 4.518.878 1.249.919 2.055 2.318 2.415 4.202v-.006Zm-5.037 4.908c.684-.131 1.125-.522 1.312-1.175.194-.653.16-1.659-.096-3.014-.257-1.356-.594-2.303-1.016-2.84-.415-.538-.968-.741-1.652-.613-.685.132-1.122.522-1.313 1.175-.193.653-.159 1.659.097 3.015s.594 2.302 1.016 2.84c.415.537.968.74 1.649.609l.003.003Z"/><mask id="i" width="58" height="61" x="67" y="132" maskUnits="userSpaceOnUse" style="mask-type:luminance"><path fill="#fff" d="M96.96 132.72c16.581 1.134 29.103 15.496 27.968 32.076-1.134 16.58-15.496 29.102-32.076 27.971a30.078 30.078 0 0 1-9.141-2.084l-15.752-41.352c5.26-10.557 16.498-17.467 28.998-16.611"/></mask><g mask="url(#i)"><path fill="url(#j)" d="M126.066 131.864H67.962v62.034h58.104v-62.034Z"/></g><path fill="#fff" d="m84.73 175.828 18.788-27.918 3.596.246-18.907 27.909-3.478-.237Zm27.836-5.886c-.162 2.365-.943 4.205-2.343 5.52-1.403 1.309-3.196 1.89-5.386 1.74-2.215-.153-3.927-.971-5.14-2.459-1.205-1.493-1.73-3.421-1.568-5.789.163-2.362.944-4.186 2.34-5.483 1.403-1.303 3.209-1.877 5.424-1.724 2.202.15 3.902.962 5.108 2.446 1.206 1.475 1.724 3.39 1.562 5.749h.003Zm-7.545 4.317c.856.06 1.503-.272 1.934-.996.437-.725.712-1.944.828-3.646.116-1.694.009-2.928-.325-3.693-.328-.766-.925-1.172-1.781-1.231-.856-.059-1.502.265-1.934.978-.434.712-.709 1.921-.824 3.614-.116 1.706-.013 2.95.321 3.728.328.778.925 1.193 1.781 1.252v-.006ZM94.04 155.033c-.16 2.352-.944 4.18-2.347 5.489-1.403 1.309-3.202 1.89-5.398 1.737-2.21-.15-3.915-.962-5.12-2.446-1.207-1.481-1.732-3.402-1.57-5.771.163-2.361.944-4.192 2.34-5.501 1.397-1.312 3.197-1.89 5.406-1.74 2.209.149 3.914.968 5.12 2.458 1.206 1.487 1.731 3.409 1.569 5.771v.003Zm-7.545 4.286c.856.06 1.502-.272 1.933-.99.438-.719.71-1.928.825-3.627.116-1.7.01-2.937-.325-3.706-.328-.771-.924-1.187-1.78-1.246-.856-.06-1.503.272-1.934.99-.438.719-.71 1.928-.825 3.627-.116 1.7-.01 2.934.325 3.709.328.771.925 1.187 1.78 1.243Z"/><mask id="k" width="37" height="37" x="103" y="170" maskUnits="userSpaceOnUse" style="mask-type:luminance"><path fill="#fff" d="M110.96 173.381c8.32-5.733 19.714-3.639 25.447 4.68 5.736 8.32 3.64 19.714-4.68 25.447-8.32 5.736-19.714 3.64-25.45-4.68-5.736-8.32-3.64-19.714 4.68-25.45"/></mask><g mask="url(#k)"><path fill="url(#l)" d="M142.143 167.648h-41.599v41.599h41.599v-41.599Z"/></g><path fill="#fff" d="m121.451 198.525-1.621-20.395 1.806-1.243 1.562 20.435-1.743 1.203h-.004Zm11.023-13.334c.818 1.187 1.14 2.359.974 3.514-.171 1.153-.806 2.109-1.905 2.865-1.113.766-2.237 1.025-3.378.775-1.14-.256-2.118-.975-2.936-2.162-.816-1.184-1.134-2.349-.963-3.493.175-1.149.816-2.105 1.928-2.874 1.106-.762 2.221-1.018 3.355-.768 1.131.246 2.103.959 2.922 2.143h.003Zm-1.959 4.911c.428-.297.612-.697.543-1.206-.065-.509-.396-1.193-.987-2.049-.584-.85-1.103-1.397-1.553-1.634-.446-.241-.884-.21-1.312.087-.431.297-.615.694-.55 1.197.063.503.391 1.184.975 2.034.591.856 1.109 1.405 1.562 1.649.45.247.891.219 1.322-.078Zm-12.503-4.996c.815 1.181 1.134 2.347.959 3.5-.172 1.152-.809 2.111-1.912 2.871-1.109.765-2.228 1.021-3.362.774-1.134-.249-2.112-.965-2.93-2.152-.816-1.184-1.138-2.353-.969-3.505.169-1.153.806-2.109 1.915-2.875 1.109-.765 2.231-1.018 3.368-.765s2.112.968 2.931 2.152Zm-1.969 4.896c.432-.297.613-.697.547-1.203-.065-.506-.393-1.187-.981-2.04-.587-.853-1.106-1.4-1.556-1.64-.45-.244-.89-.216-1.318.081-.428.297-.612.697-.544 1.203.066.506.391 1.187.981 2.04.588.853 1.106 1.4 1.556 1.64.447.244.887.216 1.319-.081h-.004Z"/><mask id="m" width="27" height="37" x="82" y="185" maskUnits="userSpaceOnUse" style="mask-type:luminance"><path fill="#fff" d="M93.561 185.588c9.942 1.805 16.537 11.331 14.731 21.272-1.287 7.077-6.483 12.457-12.956 14.319l-12.981-34.076a18.223 18.223 0 0 1 11.21-1.515"/></mask><g mask="url(#m)"><path fill="url(#n)" d="M110.098 184.869H82.352v36.309h27.746v-36.309Z"/></g><path fill="#fff" d="m88.863 204.198 7.629-8.988 2.156.391-9.032 10.572-.753-1.978v.003Zm11.606 4.937c-.259 1.418-.856 2.477-1.787 3.177-.937.697-2.059.925-3.371.687-1.328-.24-2.306-.853-2.937-1.834-.628-.984-.812-2.183-.556-3.602.256-1.415.853-2.465 1.784-3.155.934-.694 2.065-.916 3.393-.675 1.322.241 2.293.847 2.921 1.821.628.972.812 2.165.556 3.581h-.003Zm-4.852 2.099c.512.094.928-.062 1.234-.472.313-.409.563-1.124.747-2.146.184-1.015.203-1.768.053-2.256-.147-.484-.478-.771-.993-.865-.513-.094-.925.059-1.235.459-.312.4-.559 1.113-.743 2.128-.184 1.021-.206 1.781-.056 2.274.147.494.478.784.99.878h.003Zm-8.51-11.641c.115-.346.219-.762.306-1.246.184-1.019.206-1.772.056-2.262-.147-.487-.478-.781-.993-.872-.375-.068-.697-.003-.966.197l-.734-1.928c.612-.153 1.284-.165 2.018-.031 1.325.241 2.3.85 2.928 1.831.628.981.815 2.178.559 3.593-.256 1.412-.853 2.462-1.79 3.158-.119.088-.24.169-.366.244l-1.021-2.68.003-.004Z"/><mask id="o" width="33" height="32" x="92" y="48" maskUnits="userSpaceOnUse" style="mask-type:luminance"><path fill="#fff" d="M111.491 48.944c8.464 1.603 14.028 9.766 12.425 18.23-1.602 8.466-9.766 14.027-18.229 12.425-8.467-1.603-14.028-9.767-12.425-18.23 1.602-8.467 9.766-14.028 18.229-12.425Z"/></mask><g mask="url(#o)"><path fill="url(#p)" d="M125.519 47.341H91.656v33.86h33.863v-33.86Z"/></g><path fill="#fff" d="m102.544 70.382 11.387-13.215 1.837.347-11.447 13.203-1.774-.338-.003.003Zm14.69-1.318c-.228 1.209-.744 2.106-1.544 2.696-.803.587-1.762.775-2.88.566-1.131-.216-1.962-.74-2.493-1.581-.528-.844-.681-1.869-.45-3.075.228-1.205.743-2.096 1.54-2.677.803-.584 1.768-.768 2.899-.553 1.125.213 1.95.734 2.478 1.572.531.834.678 1.85.45 3.055v-.003Zm-4.149 1.759c.437.081.79-.047 1.056-.394.268-.347.484-.956.65-1.828.162-.865.184-1.505.059-1.92-.122-.413-.403-.66-.84-.744-.438-.082-.791.043-1.056.384-.269.34-.485.947-.647 1.809-.166.871-.188 1.515-.063 1.937.122.422.403.672.841.753v.003Zm-4.471-10.572c-.228 1.202-.74 2.093-1.546 2.68-.803.587-1.766.775-2.887.562-1.128-.212-1.956-.737-2.484-1.574-.531-.837-.681-1.86-.453-3.065.228-1.206.744-2.1 1.543-2.687.8-.587 1.762-.775 2.89-.562 1.128.212 1.956.74 2.484 1.58.528.841.681 1.863.453 3.066Zm-4.146 1.743c.438.081.791-.047 1.056-.39.269-.344.484-.95.647-1.819.165-.868.184-1.509.062-1.928-.121-.418-.403-.668-.84-.75-.437-.08-.79.047-1.056.391-.269.344-.484.95-.65 1.815-.165.869-.184 1.51-.062 1.928.121.419.403.668.84.75l.003.003Z"/><mask id="q" width="21" height="20" x="131" y="56" maskUnits="userSpaceOnUse" style="mask-type:luminance"><path fill="#fff" d="M135.919 58.113c4.459-3.027 10.529-1.868 13.556 2.59 3.028 4.459 1.869 10.529-2.59 13.556-4.458 3.028-10.528 1.869-13.555-2.59-3.028-4.458-1.869-10.528 2.589-13.556Z"/></mask><g mask="url(#q)"><path fill="url(#r)" d="M152.506 55.083h-22.204v22.204h22.204V55.083Z"/></g><path fill="#fff" d="m141.424 71.563-.79-10.885.969-.656.756 10.907-.935.634Zm5.927-7.07c.431.637.6 1.262.506 1.878-.097.615-.437 1.121-1.028 1.521-.596.406-1.196.538-1.802.4-.606-.14-1.125-.528-1.559-1.162-.431-.634-.597-1.256-.5-1.868.097-.613.443-1.122 1.04-1.525.594-.403 1.187-.534 1.793-.397.603.135 1.119.519 1.55 1.156v-.003Zm-1.062 2.612a.627.627 0 0 0 .294-.64c-.035-.272-.207-.638-.519-1.097-.309-.456-.584-.75-.822-.878a.63.63 0 0 0-.7.04c-.231.157-.331.37-.296.638.031.269.203.631.512 1.087.312.46.587.756.828.887.24.135.475.12.706-.037h-.003Zm-6.648-2.712c.431.634.596 1.256.499 1.871-.096.616-.44 1.122-1.031 1.525-.593.403-1.193.537-1.796.4s-1.122-.522-1.556-1.16c-.431-.633-.597-1.258-.503-1.87.094-.613.438-1.122 1.031-1.525.594-.403 1.194-.534 1.8-.397.606.138 1.124.525 1.556 1.16v-.004Zm-1.069 2.603a.629.629 0 0 0 .297-.64c-.031-.273-.206-.635-.516-1.091-.309-.456-.584-.75-.824-.881a.628.628 0 0 0-.703.037.625.625 0 0 0-.294.64c.031.272.203.635.515 1.091.31.456.585.75.825.881a.629.629 0 0 0 .703-.037h-.003Z"/><path fill="#FF5665" fill-rule="evenodd" d="M228.868 60.725c7.739 2.893 11.663 11.51 8.773 19.245-2.893 7.736-11.51 11.663-19.245 8.77-7.736-2.893-11.66-11.51-8.77-19.245 2.893-7.736 11.509-11.663 19.245-8.77" clip-rule="evenodd"/><path fill="#fff" fill-rule="evenodd" d="M224.682 71.766s4.692-1.684 6.52 1.134c2.88 4.446-6.877 8.876-10.313 10.204-1.847-2.396-6.995-13.09-1.937-14.653 3.208-.99 5.73 3.312 5.73 3.312" clip-rule="evenodd"/><path fill="#FF5665" fill-rule="evenodd" d="M212.5 108.591a8.39 8.39 0 0 1 10.138 6.171 8.39 8.39 0 0 1-6.17 10.138c-4.502 1.096-9.041-1.669-10.138-6.171a8.39 8.39 0 0 1 6.17-10.138Z" clip-rule="evenodd"/><path fill="#fff" fill-rule="evenodd" d="M214.037 115.037s1.647-2.262 3.384-1.528c2.737 1.156-.394 6.289-1.572 7.989-1.612-.532-7.376-3.871-5.517-6.193 1.178-1.471 3.705-.268 3.705-.268Z" clip-rule="evenodd"/></g><defs><linearGradient id="d" x1="81.248" x2="75.498" y1="146.896" y2="118.482" gradientUnits="userSpaceOnUse"><stop stop-color="#FE920D"/><stop offset="1" stop-color="#FEB05C"/></linearGradient><linearGradient id="f" x1="72.695" x2="62.859" y1="117.618" y2="72.276" gradientUnits="userSpaceOnUse"><stop stop-color="#FE920D"/><stop offset="1" stop-color="#FEB05C"/></linearGradient><linearGradient id="h" x1="112.991" x2="105.815" y1="131.676" y2="93.911" gradientUnits="userSpaceOnUse"><stop stop-color="#FE920D"/><stop offset="1" stop-color="#FEB05C"/></linearGradient><linearGradient id="j" x1="99.87" x2="90.937" y1="178.938" y2="134.908" gradientUnits="userSpaceOnUse"><stop stop-color="#FE920D"/><stop offset="1" stop-color="#FEB05C"/></linearGradient><linearGradient id="l" x1="123.388" x2="117.75" y1="199.216" y2="169.546" gradientUnits="userSpaceOnUse"><stop stop-color="#FE920D"/><stop offset="1" stop-color="#FEB05C"/></linearGradient><linearGradient id="n" x1="97.589" x2="91.305" y1="212.422" y2="187.152" gradientUnits="userSpaceOnUse"><stop stop-color="#FE920D"/><stop offset="1" stop-color="#FEB05C"/></linearGradient><linearGradient id="p" x1="110.252" x2="105.663" y1="73.036" y2="48.885" gradientUnits="userSpaceOnUse"><stop stop-color="#FE920D"/><stop offset="1" stop-color="#FEB05C"/></linearGradient><linearGradient id="r" x1="142.495" x2="139.486" y1="71.932" y2="56.096" gradientUnits="userSpaceOnUse"><stop stop-color="#FE920D"/><stop offset="1" stop-color="#FEB05C"/></linearGradient><clipPath id="a"><path fill="#fff" d="M.032 0h315.936v260H.032z"/></clipPath></defs></svg>